{"asset":{"generator":"Khronos glTF Spline I/O v0.0.1","version":"2.0"},"scenes":[{"nodes":[0]}],"nodes":[{"name":"","children":[1,2]},{"name":"Pyramid","matrix":[0.9986295347545731,0.0009133883796357286,0.05232798522331313,0,1.5178830414797062e-18,0.9998476951563913,-0.017452406437283303,0,-0.05233595624294387,0.017428488520811955,0.99847743863946,0,91.57433983414137,137.8238972683823,6.055126118242488,1],"mesh":0},{"name":"personal","camera":0,"translation":[55.82791143573219,101.52392105202468,995.7695769378695],"rotation":[-0.05926473394444247,0.005185691021302808,0.00030787390990210555,0.9982287839632665]}],"cameras":[{"type":"orthographic","orthographic":{"xmag":1522,"ymag":827,"zfar":500000,"znear":-500000}}],"meshes":[{"primitives":[{"attributes":{"POSITION":1,"NORMAL":2,"TEXCOORD_0":3},"indices":0}]}],"buffers":[{"uri":"data:application/octet-stream;base64,","byteLength":123344}],"bufferViews":[{"buffer":0,"byteOffset":0,"byteLength":30000,"target":34963},{"buffer":0,"byteOffset":30000,"byteLength":35004,"target":34962},{"buffer":0,"byteOffset":65004,"byteLength":35004,"target":34962},{"buffer":0,"byteOffset":100008,"byteLength":23336,"target":34962}],"accessors":[{"bufferView":0,"byteOffset":0,"componentType":5123,"count":15000,"type":"SCALAR","min":[0],"max":[2916]},{"bufferView":1,"byteOffset":0,"componentType":5126,"count":2917,"type":"VEC3","min":[-110.64948272705078,-139,-71.86203002929688],"max":[110.64948272705078,92.78987121582031,71.86203002929688]},{"bufferView":2,"byteOffset":0,"componentType":5126,"count":2917,"type":"VEC3","min":[-0.999813973903656,-1,-0.9999215006828308],"max":[0.999813973903656,1,0.9999215006828308]},{"bufferView":3,"byteOffset":0,"componentType":5126,"count":2917,"type":"VEC2","min":[0,0],"max":[0,0]}],"extensions":{"KHR_lights_punctual":{"lights":[]}},"extensionsUsed":["KHR_lights_punctual"]}